<svg width="100" height="115" viewBox="0 0 100 115" fill="none" xmlns="http://www.w3.org/2000/svg">
<g clip-path="url(#clip0_133_384)">
<path d="M24.74 52.8569C23.0563 51.8626 21.7716 50.2908 21.114 48.4204C20.4564 46.55 20.4683 44.5019 21.1477 42.6396C21.3177 42.1707 21.3554 41.6623 21.2564 41.1726C21.1574 40.6828 20.9257 40.2314 20.5879 39.8697L18.2329 37.334C17.9231 36.9969 17.5326 36.7483 17.1001 36.6126C16.6675 36.477 16.2078 36.4591 15.7664 36.5607C14.7257 36.8072 13.6415 36.7869 12.6104 36.5014C11.5792 36.2159 10.6332 35.6741 9.85659 34.9243C9.07996 34.1745 8.49684 33.24 8.15918 32.2041C7.82152 31.1681 7.73981 30.0629 7.92132 28.9868C8.10283 27.9107 8.54191 26.8973 9.19947 26.0367C9.85704 25.1761 10.7127 24.4952 11.6901 24.0545C12.6675 23.6139 13.7364 23.4272 14.8015 23.5111C15.8666 23.595 16.8949 23.9469 17.7948 24.5355C18.049 24.7057 18.3528 24.7814 18.6552 24.7501C18.9576 24.7188 19.2403 24.5823 19.456 24.3634L22.6284 21.0979C22.7376 20.9853 22.8134 20.8434 22.8472 20.6886C22.8809 20.5338 22.8712 20.3724 22.8191 20.223C22.5008 19.2868 22.5173 18.2656 22.8657 17.3407C23.2141 16.4158 23.8718 15.647 24.7221 15.1706C25.5724 14.6943 26.5603 14.5413 27.5105 14.7388C28.4607 14.9362 29.3117 15.4714 29.9125 16.2493C30.5133 17.0273 30.825 17.9976 30.7924 18.9881C30.7597 19.9787 30.3848 20.9253 29.7341 21.6601C29.0834 22.395 28.1991 22.8704 27.2381 23.002C26.277 23.1337 25.3014 22.913 24.4844 22.3792C24.3219 22.2726 24.1285 22.2262 23.9366 22.2477C23.7446 22.2692 23.5657 22.3573 23.4296 22.4974L20.3647 25.6509C20.1708 25.8524 20.0435 26.1109 20.0005 26.3902C19.9576 26.6694 20.0013 26.9554 20.1254 27.208C20.6123 28.2281 20.8345 29.359 20.7706 30.4922C20.7067 31.6253 20.3588 32.7227 19.7603 33.6788L19.7481 33.6953C19.4267 34.2073 19.2827 34.8146 19.3389 35.4202C19.3952 36.0257 19.6485 36.5945 20.0584 37.0354L21.0544 38.1094C21.4731 38.5638 22.0342 38.854 22.6403 38.9297C23.2464 39.0054 23.8594 38.8619 24.3728 38.5241C25.5998 37.7097 27.017 37.2444 28.4785 37.1761C29.9399 37.1078 31.3928 37.439 32.6873 38.1355C33.9819 38.832 35.0714 39.8687 35.8437 41.1387C36.6159 42.4087 37.043 43.8663 37.0808 45.3611C37.1187 46.856 36.766 48.3341 36.0591 49.6433C35.3521 50.9525 34.3166 52.0454 33.059 52.8094C31.8014 53.5734 30.3672 53.9809 28.9043 53.99C27.4414 53.9991 26.0025 53.6094 24.7359 52.861L24.74 52.8569Z" fill="url(#paint0_linear_133_384)"/>
<path d="M24.74 52.8569C23.0563 51.8626 21.7716 50.2908 21.114 48.4204C20.4564 46.55 20.4683 44.5019 21.1477 42.6396C21.3177 42.1707 21.3554 41.6623 21.2564 41.1726C21.1574 40.6828 20.9257 40.2314 20.5879 39.8697L18.2329 37.334C17.9231 36.9969 17.5326 36.7483 17.1001 36.6126C16.6675 36.477 16.2078 36.4591 15.7664 36.5607C14.7257 36.8072 13.6415 36.7869 12.6104 36.5014C11.5792 36.2159 10.6332 35.6741 9.85659 34.9243C9.07996 34.1745 8.49684 33.24 8.15918 32.2041C7.82152 31.1681 7.73981 30.0629 7.92132 28.9868C8.10283 27.9107 8.54191 26.8973 9.19947 26.0367C9.85704 25.1761 10.7127 24.4952 11.6901 24.0545C12.6675 23.6139 13.7364 23.4272 14.8015 23.5111C15.8666 23.595 16.8949 23.9469 17.7948 24.5355C18.049 24.7057 18.3528 24.7814 18.6552 24.7501C18.9576 24.7188 19.2403 24.5823 19.456 24.3634L22.6284 21.0979C22.7376 20.9853 22.8134 20.8434 22.8472 20.6886C22.8809 20.5338 22.8712 20.3724 22.8191 20.223C22.5008 19.2868 22.5173 18.2656 22.8657 17.3407C23.2141 16.4158 23.8718 15.647 24.7221 15.1706C25.5724 14.6943 26.5603 14.5413 27.5105 14.7388C28.4607 14.9362 29.3117 15.4714 29.9125 16.2493C30.5133 17.0273 30.825 17.9976 30.7924 18.9881C30.7597 19.9787 30.3848 20.9253 29.7341 21.6601C29.0834 22.395 28.1991 22.8704 27.2381 23.002C26.277 23.1337 25.3014 22.913 24.4844 22.3792C24.3219 22.2726 24.1285 22.2262 23.9366 22.2477C23.7446 22.2692 23.5657 22.3573 23.4296 22.4974L20.3647 25.6509C20.1708 25.8524 20.0435 26.1109 20.0005 26.3902C19.9576 26.6694 20.0013 26.9554 20.1254 27.208C20.6123 28.2281 20.8345 29.359 20.7706 30.4922C20.7067 31.6253 20.3588 32.7227 19.7603 33.6788L19.7481 33.6953C19.4267 34.2073 19.2827 34.8146 19.3389 35.4202C19.3952 36.0257 19.6485 36.5945 20.0584 37.0354L21.0544 38.1094C21.4731 38.5638 22.0342 38.854 22.6403 38.9297C23.2464 39.0054 23.8594 38.8619 24.3728 38.5241C25.5998 37.7097 27.017 37.2444 28.4785 37.1761C29.9399 37.1078 31.3928 37.439 32.6873 38.1355C33.9819 38.832 35.0714 39.8687 35.8437 41.1387C36.6159 42.4087 37.043 43.8663 37.0808 45.3611C37.1187 46.856 36.766 48.3341 36.0591 49.6433C35.3521 50.9525 34.3166 52.0454 33.059 52.8094C31.8014 53.5734 30.3672 53.9809 28.9043 53.99C27.4414 53.9991 26.0025 53.6094 24.7359 52.861L24.74 52.8569Z" fill="url(#paint1_linear_133_384)"/>
<path d="M26.8109 51.5009C28.2258 51.5009 29.3728 50.3285 29.3728 48.8823C29.3728 47.4361 28.2258 46.2637 26.8109 46.2637C25.396 46.2637 24.249 47.4361 24.249 48.8823C24.249 50.3285 25.396 51.5009 26.8109 51.5009Z" fill="white"/>
<path d="M11.2328 33.5336C12.1536 33.5336 12.9001 32.7706 12.9001 31.8293C12.9001 30.8881 12.1536 30.1251 11.2328 30.1251C10.3119 30.1251 9.56543 30.8881 9.56543 31.8293C9.56543 32.7706 10.3119 33.5336 11.2328 33.5336Z" fill="white"/>
<path d="M26.744 22.3399C27.3165 22.3399 27.7805 21.8655 27.7805 21.2804C27.7805 20.6953 27.3165 20.2209 26.744 20.2209C26.1716 20.2209 25.7075 20.6953 25.7075 21.2804C25.7075 21.8655 26.1716 22.3399 26.744 22.3399Z" fill="white"/>
<path d="M96.6407 30.4921H81.7847L80.1092 22.8043C80.0603 22.5925 79.9404 22.4048 79.7703 22.2738C79.6003 22.1428 79.3909 22.0767 79.1782 22.0869C78.9639 22.0997 78.7612 22.1903 78.6065 22.3423C78.4518 22.4944 78.3553 22.6979 78.3344 22.9162L75.6528 49.9604L72.9916 5.93793C72.9778 5.7061 72.8788 5.48818 72.7144 5.32785C72.55 5.16751 72.3324 5.0766 72.1052 5.07336H72.093C71.8677 5.07403 71.6509 5.16077 71.485 5.31652C71.3191 5.47227 71.2162 5.68579 71.1965 5.91514L68.3242 40.4004L66.4277 24.0047C66.3991 23.7801 66.2916 23.5737 66.1251 23.4242C65.9586 23.2746 65.7446 23.1921 65.523 23.192C65.3016 23.1949 65.0891 23.2811 64.926 23.4341C64.7628 23.5871 64.6606 23.7961 64.6386 24.0213L63.7563 33.7451L62.7421 31.0788C62.6766 30.9055 62.5613 30.7565 62.4114 30.6514C62.2616 30.5464 62.0841 30.4901 61.9023 30.49H41.2492C41.2492 30.5626 41.235 30.6372 41.2289 30.7119C41.2529 31.2507 41.2495 31.7905 41.2188 32.329H61.2999L63.4662 38.0617C63.5396 38.255 63.6746 38.4174 63.8495 38.5224C64.0245 38.6275 64.2289 38.6691 64.4299 38.6406C64.6308 38.612 64.8164 38.515 64.9567 38.3651C65.0969 38.2153 65.1835 38.0214 65.2025 37.815L65.6508 32.8764L67.5818 49.5997C67.6089 49.8254 67.7167 50.033 67.8846 50.1823C68.0525 50.3316 68.2686 50.4121 68.4911 50.4082C68.7136 50.4044 68.9268 50.3164 69.0897 50.1614C69.2525 50.0063 69.3534 49.7951 69.3729 49.5686L71.9591 18.5436L74.5433 61.3242C74.557 61.555 74.6552 61.772 74.8183 61.9322C74.9814 62.0924 75.1975 62.184 75.4236 62.1888H75.4419C75.665 62.1883 75.88 62.1033 76.0453 61.9501C76.2105 61.7968 76.3143 61.5864 76.3364 61.3594L79.5818 28.7588L80.2025 31.6075C80.2469 31.8117 80.3581 31.9944 80.5178 32.1252C80.6775 32.256 80.8761 32.3272 81.0808 32.327H96.6589C96.7807 32.3329 96.9023 32.3135 97.0165 32.2699C97.1306 32.2264 97.235 32.1596 97.3232 32.0736C97.4114 31.9877 97.4816 31.8843 97.5295 31.7698C97.5775 31.6553 97.6022 31.532 97.6022 31.4074C97.6022 31.2829 97.5775 31.1596 97.5295 31.0451C97.4816 30.9306 97.4114 30.8272 97.3232 30.7413C97.235 30.6553 97.1306 30.5885 97.0165 30.545C96.9023 30.5014 96.7807 30.482 96.6589 30.4879L96.6407 30.4921Z" fill="url(#paint2_linear_133_384)"/>
<path d="M15.8252 102.873V90.676H18.2349V102.873H15.8252Z" fill="#001E89"/>
<path d="M15.8252 102.873V90.676H18.2349V102.873H15.8252Z" fill="#001E89"/>
<path d="M28.1681 98.3845L30.5049 99.1413C30.2491 100.306 29.6202 101.35 28.7178 102.108C27.6409 102.845 26.3479 103.179 25.0579 103.053C23.7678 102.927 22.56 102.349 21.6387 101.418C20.5673 100.168 20.0175 98.5386 20.1073 96.8793C20.0027 95.1581 20.5545 93.4624 21.6468 92.148C22.1643 91.5878 22.7933 91.1474 23.4913 90.8567C24.1894 90.5659 24.9403 90.4315 25.6935 90.4624C27.0035 90.406 28.2821 90.8824 29.2493 91.7873C29.8481 92.408 30.2691 93.1845 30.4663 94.0326L28.0809 94.6153C27.9706 94.0229 27.6562 93.4907 27.1947 93.1152C26.7331 92.7397 26.1552 92.5459 25.5657 92.5689C25.1583 92.5552 24.7532 92.6357 24.3805 92.8044C24.0079 92.9731 23.6773 93.2257 23.4136 93.5434C22.7844 94.4619 22.4921 95.5778 22.588 96.6948C22.483 97.856 22.7693 99.0191 23.3994 99.9913C23.6553 100.309 23.9791 100.563 24.3458 100.733C24.7126 100.903 25.1125 100.984 25.515 100.972C26.1231 100.985 26.7136 100.763 27.1681 100.35C27.694 99.8176 28.0437 99.1303 28.1681 98.3845Z" fill="#001E89"/>
<path d="M28.1681 98.3845L30.5049 99.1413C30.2491 100.306 29.6202 101.35 28.7178 102.108C27.6409 102.845 26.3479 103.179 25.0579 103.053C23.7678 102.927 22.56 102.349 21.6387 101.418C20.5673 100.168 20.0175 98.5386 20.1073 96.8793C20.0027 95.1581 20.5545 93.4624 21.6468 92.148C22.1643 91.5878 22.7933 91.1474 23.4913 90.8567C24.1894 90.5659 24.9403 90.4315 25.6935 90.4624C27.0035 90.406 28.2821 90.8824 29.2493 91.7873C29.8481 92.408 30.2691 93.1845 30.4663 94.0326L28.0809 94.6153C27.9706 94.0229 27.6562 93.4907 27.1947 93.1152C26.7331 92.7397 26.1552 92.5459 25.5657 92.5689C25.1583 92.5552 24.7532 92.6357 24.3805 92.8044C24.0079 92.9731 23.6773 93.2257 23.4136 93.5434C22.7844 94.4619 22.4921 95.5778 22.588 96.6948C22.483 97.856 22.7693 99.0191 23.3994 99.9913C23.6553 100.309 23.9791 100.563 24.3458 100.733C24.7126 100.903 25.1125 100.984 25.515 100.972C26.1231 100.985 26.7136 100.763 27.1681 100.35C27.694 99.8176 28.0437 99.1303 28.1681 98.3845Z" fill="#001E89"/>
<path d="M38.1235 98.3845V96.3299H43.3182V101.19C42.6777 101.771 41.9322 102.219 41.1235 102.508C40.1964 102.882 39.2093 103.075 38.2127 103.079C37.0747 103.107 35.9494 102.829 34.949 102.274C34.0325 101.753 33.3001 100.95 32.8557 99.9789C32.385 98.964 32.1458 97.8532 32.1559 96.73C32.1351 95.5518 32.4036 94.3871 32.9368 93.3423C33.4504 92.3585 34.2498 91.5616 35.2249 91.0616C36.1165 90.629 37.0964 90.4207 38.0829 90.4541C39.3101 90.3812 40.5275 90.7157 41.5535 91.4079C42.3916 92.0504 42.9651 92.9892 43.162 94.0409L40.7685 94.4992C40.6199 93.93 40.2857 93.4297 39.8212 93.081C39.3118 92.7206 38.7021 92.5381 38.0829 92.5606C37.6172 92.5383 37.1523 92.6179 36.7192 92.7942C36.2861 92.9705 35.8949 93.2394 35.5717 93.5828C34.8929 94.4364 34.5591 95.5231 34.6387 96.6201C34.5513 97.7884 34.8878 98.9486 35.5839 99.8794C35.8925 100.236 36.2744 100.518 36.7023 100.705C37.1301 100.893 37.5933 100.981 38.0586 100.964C38.5782 100.963 39.093 100.861 39.5758 100.665C40.0434 100.485 40.4833 100.237 40.8821 99.9292V98.3845H38.1235Z" fill="#001E89"/>
<path d="M38.1235 98.3845V96.3299H43.3182V101.19C42.6777 101.771 41.9322 102.219 41.1235 102.508C40.1964 102.882 39.2093 103.075 38.2127 103.079C37.0747 103.107 35.9494 102.829 34.949 102.274C34.0325 101.753 33.3001 100.95 32.8557 99.9789C32.385 98.964 32.1458 97.8532 32.1559 96.73C32.1351 95.5518 32.4036 94.3871 32.9368 93.3423C33.4504 92.3585 34.2498 91.5616 35.2249 91.0616C36.1165 90.629 37.0964 90.4207 38.0829 90.4541C39.3101 90.3812 40.5275 90.7157 41.5535 91.4079C42.3916 92.0504 42.9651 92.9892 43.162 94.0409L40.7685 94.4992C40.6199 93.93 40.2857 93.4297 39.8212 93.081C39.3118 92.7206 38.7021 92.5381 38.0829 92.5606C37.6172 92.5383 37.1523 92.6179 36.7192 92.7942C36.2861 92.9705 35.8949 93.2394 35.5717 93.5828C34.8929 94.4364 34.5591 95.5231 34.6387 96.6201C34.5513 97.7884 34.8878 98.9486 35.5839 99.8794C35.8925 100.236 36.2744 100.518 36.7023 100.705C37.1301 100.893 37.5933 100.981 38.0586 100.964C38.5782 100.963 39.093 100.861 39.5758 100.665C40.0434 100.485 40.4833 100.237 40.8821 99.9292V98.3845H38.1235Z" fill="#001E89"/>
<path d="M62.4396 98.3845L64.7763 99.1413C64.5205 100.306 63.8916 101.35 62.9893 102.108C61.9123 102.845 60.6194 103.179 59.3294 103.053C58.0393 102.927 56.8314 102.349 55.9102 101.418C54.8387 100.168 54.289 98.5386 54.3788 96.8793C54.2742 95.1581 54.826 93.4624 55.9183 92.148C56.4369 91.5864 57.0675 91.1453 57.7674 90.8545C58.4674 90.5637 59.2202 90.4299 59.9751 90.4624C61.2857 90.4064 62.5647 90.8827 63.5329 91.7873C64.1299 92.4093 64.5506 93.1854 64.7499 94.0326L62.3646 94.6153C62.2535 94.0233 61.9388 93.4916 61.4775 93.1162C61.0162 92.7409 60.4386 92.5467 59.8493 92.5689C59.4416 92.555 59.0362 92.6354 58.6632 92.8041C58.2902 92.9729 57.9592 93.2256 57.6952 93.5434C57.0661 94.4619 56.7738 95.5778 56.8696 96.6948C56.7647 97.856 57.0509 99.0191 57.681 99.9913C57.9372 100.309 58.2612 100.563 58.6283 100.733C58.9954 100.903 59.3958 100.985 59.7986 100.972C60.4061 100.985 60.9959 100.763 61.4497 100.35C61.9719 99.8162 62.318 99.1291 62.4396 98.3845Z" fill="#001E89"/>
<path d="M62.4396 98.3845L64.7763 99.1413C64.5205 100.306 63.8916 101.35 62.9893 102.108C61.9123 102.845 60.6194 103.179 59.3294 103.053C58.0393 102.927 56.8314 102.349 55.9102 101.418C54.8387 100.168 54.289 98.5386 54.3788 96.8793C54.2742 95.1581 54.826 93.4624 55.9183 92.148C56.4369 91.5864 57.0675 91.1453 57.7674 90.8545C58.4674 90.5637 59.2202 90.4299 59.9751 90.4624C61.2857 90.4064 62.5647 90.8827 63.5329 91.7873C64.1299 92.4093 64.5506 93.1854 64.7499 94.0326L62.3646 94.6153C62.2535 94.0233 61.9388 93.4916 61.4775 93.1162C61.0162 92.7409 60.4386 92.5467 59.8493 92.5689C59.4416 92.555 59.0362 92.6354 58.6632 92.8041C58.2902 92.9729 57.9592 93.2256 57.6952 93.5434C57.0661 94.4619 56.7738 95.5778 56.8696 96.6948C56.7647 97.856 57.0509 99.0191 57.681 99.9913C57.9372 100.309 58.2612 100.563 58.6283 100.733C58.9954 100.903 59.3958 100.985 59.7986 100.972C60.4061 100.985 60.9959 100.763 61.4497 100.35C61.9719 99.8162 62.318 99.1291 62.4396 98.3845Z" fill="#001E89"/>
<path d="M77.606 102.873H74.9833L73.9427 100.103H69.172L68.1861 102.873H65.6304L70.2794 90.676H72.8271L77.606 102.873ZM73.1679 98.0487L71.5249 93.5206L69.9123 98.0487H73.1679Z" fill="#001E89"/>
<path d="M77.606 102.873H74.9833L73.9427 100.103H69.172L68.1861 102.873H65.6304L70.2794 90.676H72.8271L77.606 102.873ZM73.1679 98.0487L71.5249 93.5206L69.9123 98.0487H73.1679Z" fill="#001E89"/>
<path d="M78.8921 102.873V90.676H83.9631C84.9013 90.6316 85.8403 90.7422 86.744 91.0035C87.3219 91.223 87.8106 91.6349 88.1315 92.1729C88.4826 92.7489 88.6636 93.4162 88.6527 94.0948C88.6824 94.9265 88.3993 95.7381 87.8617 96.3631C87.2307 97.0125 86.3948 97.4122 85.5027 97.4909C85.9783 97.7668 86.4128 98.111 86.7927 98.5131C87.3047 99.1322 87.7634 99.7954 88.1639 100.495L89.6203 102.873H86.74L84.9976 100.219C84.6118 99.5948 84.1877 98.9957 83.7278 98.426C83.5285 98.2003 83.2796 98.0263 83.0016 97.918C82.6053 97.8085 82.1947 97.7623 81.7846 97.7812H81.2957V102.873H78.8921ZM81.3018 95.824H83.0828C83.8081 95.8613 84.5352 95.8112 85.2491 95.6747C85.5245 95.5848 85.7623 95.403 85.9245 95.1584C86.0961 94.8866 86.1818 94.5674 86.17 94.2441C86.1875 93.8829 86.0725 93.528 85.8475 93.249C85.6107 92.9841 85.2891 92.8143 84.9408 92.77C84.7433 92.7424 84.1572 92.7285 83.1822 92.7285H81.3018V95.824Z" fill="#001E89"/>
<path d="M78.8921 102.873V90.676H83.9631C84.9013 90.6316 85.8403 90.7422 86.744 91.0035C87.3219 91.223 87.8106 91.6349 88.1315 92.1729C88.4826 92.7489 88.6636 93.4162 88.6527 94.0948C88.6824 94.9265 88.3993 95.7381 87.8617 96.3631C87.2307 97.0125 86.3948 97.4122 85.5027 97.4909C85.9783 97.7668 86.4128 98.111 86.7927 98.5131C87.3047 99.1322 87.7634 99.7954 88.1639 100.495L89.6203 102.873H86.74L84.9976 100.219C84.6118 99.5948 84.1877 98.9957 83.7278 98.426C83.5285 98.2003 83.2796 98.0263 83.0016 97.918C82.6053 97.8085 82.1947 97.7623 81.7846 97.7812H81.2957V102.873H78.8921ZM81.3018 95.824H83.0828C83.8081 95.8613 84.5352 95.8112 85.2491 95.6747C85.5245 95.5848 85.7623 95.403 85.9245 95.1584C86.0961 94.8866 86.1818 94.5674 86.17 94.2441C86.1875 93.8829 86.0725 93.528 85.8475 93.249C85.6107 92.9841 85.2891 92.8143 84.9408 92.77C84.7433 92.7424 84.1572 92.7285 83.1822 92.7285H81.3018V95.824Z" fill="#001E89"/>
<path d="M90.9224 102.873V90.676H99.7723V92.7389H93.3281V95.4342H99.3199V97.4889H93.3281V100.806H99.9954V102.861L90.9224 102.873Z" fill="#001E89"/>
<path d="M90.9224 102.873V90.676H99.7723V92.7389H93.3281V95.4342H99.3199V97.4889H93.3281V100.806H99.9954V102.861L90.9224 102.873Z" fill="#001E89"/>
<path d="M85.4177 22.147C85.1034 19.7213 84.4418 17.3559 83.4543 15.1268C82.5055 12.9283 81.1874 10.9165 79.5597 9.18267C77.9844 7.50597 76.0819 6.18647 73.9756 5.30975C72.9533 4.88401 71.8938 4.55842 70.8113 4.33736C69.7427 4.10636 68.6571 3.96764 67.5658 3.92269C65.3494 3.80957 63.1318 4.12252 61.0283 4.84531C58.8592 5.60251 56.8362 6.74129 55.0506 8.21029C53.2052 9.72863 51.5678 11.4936 50.1824 13.4578C49.4694 14.4569 48.8157 15.4989 48.225 16.5781C47.9248 17.1214 47.6395 17.6742 47.369 18.2368C47.2338 18.5215 47.0986 18.8104 46.9634 19.1034C46.8335 19.4061 46.7179 19.6736 46.582 20.0385L49.2737 20.0654C49.1053 19.5637 48.9573 19.1967 48.7869 18.78C48.6165 18.3633 48.4441 17.9859 48.2595 17.6003C47.8964 16.8249 47.5029 16.0764 47.081 15.3487C46.2506 13.9028 45.3063 12.5285 44.2575 11.2394C42.2322 8.71189 39.7719 6.58425 36.9979 4.96142C35.6536 4.1765 34.237 3.52859 32.7686 3.02703C31.3296 2.52437 29.8489 2.15658 28.3447 1.92818C27.6003 1.78927 26.8518 1.74366 26.1033 1.6628C25.3548 1.62548 24.6084 1.58401 23.8559 1.58401C22.3375 1.57997 20.8219 1.71878 19.3284 1.99868C16.2249 2.56967 13.2811 3.82787 10.7037 5.68501C7.982 7.67006 5.70615 10.226 4.02824 13.1821C0.581934 19.448 -0.727483 26.7075 0.306147 33.8177C0.534911 35.5685 0.884652 37.3006 1.35278 39.0009C1.58199 39.8489 1.84571 40.6741 2.12968 41.5034C2.43216 42.3517 2.78021 43.1823 3.17226 43.9914C4.68762 46.9707 6.56598 49.742 8.76252 52.239C10.8112 54.6138 13.0006 56.8579 15.3183 58.9586C17.5861 61.0422 19.9066 63.016 22.2514 64.9317C24.5962 66.8475 26.9634 68.7072 29.3508 70.5297L36.4989 75.9327C38.8701 77.7344 41.227 79.5485 43.4948 81.456C44.6266 82.4076 45.7443 83.3738 46.7849 84.4022C47.3082 84.9143 47.799 85.4388 48.2636 85.9882C48.7035 86.4982 49.0897 87.0542 49.4157 87.6468L50.1419 89.0484L51.1439 88.076C52.3995 86.8569 53.5313 85.6337 54.6855 84.3773C55.8396 83.1208 56.935 81.8312 58.0384 80.5354C60.2149 77.9148 62.4421 75.3522 64.5496 72.6569C66.6571 69.9616 68.726 67.2248 70.651 64.3491C71.6084 62.9082 72.5374 61.4465 73.3995 59.9185C74.2826 58.3995 75.0718 56.8256 75.7626 55.2059C74.1593 58.2662 72.289 61.1724 70.1743 63.8889C68.1338 66.6153 65.9613 69.2069 63.7402 71.7363C61.5191 74.2657 59.2656 76.7558 56.8944 79.0945C55.72 80.2783 54.5273 81.4332 53.3386 82.5839C52.15 83.7346 50.9289 84.879 49.7321 85.9011L51.4603 86.3303C51.0741 85.5198 50.602 84.755 50.0526 84.0497C49.5435 83.3779 49.0141 82.7622 48.4745 82.1837C47.3913 81.0102 46.2737 79.93 45.1378 78.8934C42.8579 76.8201 40.5293 74.9023 38.2007 72.9886L31.2189 67.2974C28.8964 65.4107 26.58 63.524 24.3102 61.5792C19.7228 57.7673 15.4382 53.5896 11.4968 49.0855C9.56433 46.8649 7.91182 44.4054 6.57795 41.7647C6.27195 41.1205 6.00109 40.4594 5.7666 39.7846C5.52928 39.0756 5.29803 38.3458 5.10533 37.6097C4.70997 36.1371 4.41648 34.6379 4.22704 33.1231C3.8447 30.0991 3.89665 27.0342 4.3812 24.0255C4.85277 21.0961 5.8323 18.2764 7.27369 15.6991C8.60472 13.2876 10.4271 11.1966 12.6175 9.5676C14.8079 7.93862 17.3151 6.80968 19.9694 6.25723C21.2666 5.9806 22.5858 5.82584 23.9106 5.79489C24.5759 5.78037 25.2514 5.80525 25.9187 5.82391C26.584 5.88404 27.2554 5.90477 27.9147 6.01881C29.2407 6.18951 30.5486 6.48518 31.8214 6.90204C33.1083 7.31008 34.3523 7.84763 35.5354 8.50678C37.9854 9.86976 40.178 11.6685 42.01 13.8186C42.9675 14.9266 43.8345 16.1131 44.6023 17.366C44.9918 17.999 45.3555 18.6494 45.6936 19.317C45.864 19.6487 46.0242 19.9867 46.1784 20.3246C46.3325 20.6626 46.4806 21.0295 46.5841 21.2949L48.0039 25.1139L49.2818 21.3219C49.3488 21.1145 49.4583 20.8346 49.5577 20.5879C49.6571 20.3412 49.7605 20.0737 49.8843 19.8187C50.1114 19.3066 50.3528 18.7987 50.6084 18.3011C51.1175 17.3089 51.6775 16.3449 52.2859 15.4129C53.4598 13.5858 54.8656 11.9258 56.4664 10.4764C58.0035 9.08365 59.7652 7.97389 61.6733 7.19644C63.5502 6.44836 65.5415 6.04479 67.5557 6.0043C68.5677 5.97914 69.5799 6.04016 70.582 6.18675C71.5893 6.32203 72.5816 6.55529 73.5455 6.88337C75.5321 7.5644 77.3623 8.65144 78.9249 10.0783C80.5709 11.6117 81.9436 13.4259 82.9817 15.4399C84.1018 17.5457 84.9221 19.8042 85.4177 22.147Z" fill="url(#paint3_linear_133_384)"/>
<path d="M72.3489 3.43339C73.2765 3.43339 74.0285 2.6648 74.0285 1.7167C74.0285 0.768591 73.2765 0 72.3489 0C71.4214 0 70.6694 0.768591 70.6694 1.7167C70.6694 2.6648 71.4214 3.43339 72.3489 3.43339Z" fill="#1E1CB0"/>
</g>
<defs>
<linearGradient id="paint0_linear_133_384" x1="-304.339" y1="34.3224" x2="-275.082" y2="34.3224" gradientUnits="userSpaceOnUse">
<stop offset="0.001" stop-color="#00C9FF"/>
<stop offset="1" stop-color="#1E1CB0"/>
</linearGradient>
<linearGradient id="paint1_linear_133_384" x1="-304.339" y1="34.3224" x2="-275.082" y2="34.3224" gradientUnits="userSpaceOnUse">
<stop offset="0.001" stop-color="#00C9FF"/>
<stop offset="1" stop-color="#1E1CB0"/>
</linearGradient>
<linearGradient id="paint2_linear_133_384" x1="41.2188" y1="33.6311" x2="97.6022" y2="33.6311" gradientUnits="userSpaceOnUse">
<stop stop-color="#E565C1"/>
<stop offset="1" stop-color="#9F27AE"/>
</linearGradient>
<linearGradient id="paint3_linear_133_384" x1="-0.0380859" y1="45.3162" x2="85.4177" y2="45.3162" gradientUnits="userSpaceOnUse">
<stop stop-color="#E565C1"/>
<stop offset="1" stop-color="#9F27AE"/>
</linearGradient>
<clipPath id="clip0_133_384">
<rect width="100" height="115" fill="white"/>
</clipPath>
</defs>
</svg>
