<?xml version="1.0" encoding="UTF-8" standalone="no"?>
<svg
   width="604"
   height="568"
   viewBox="0 0 604 568"
   fill="none"
   version="1.1"
   id="svg146"
   sodipodi:docname="doctor.svg"
   xmlns:inkscape="http://www.inkscape.org/namespaces/inkscape"
   xmlns:sodipodi="http://sodipodi.sourceforge.net/DTD/sodipodi-0.dtd"
   xmlns="http://www.w3.org/2000/svg"
   xmlns:svg="http://www.w3.org/2000/svg">
  <sodipodi:namedview
     id="namedview148"
     pagecolor="#ffffff"
     bordercolor="#000000"
     borderopacity="0.25"
     inkscape:showpageshadow="2"
     inkscape:pageopacity="0.0"
     inkscape:pagecheckerboard="0"
     inkscape:deskcolor="#d1d1d1" />
  <mask
     id="mask0_726_794"
     style="mask-type:alpha"
     maskUnits="userSpaceOnUse"
     x="0"
     y="0"
     width="604"
     height="568">
    <rect
       width="604"
       height="568"
       fill="#D9D9D9"
       id="rect2" />
  </mask>
  <g
     mask="url(#mask0_726_794)"
     id="g125">
    <path
       d="M586.473 271.494C585.673 271.494 584.881 271.336 584.142 271.03C583.403 270.723 582.732 270.274 582.167 269.708C581.602 269.142 581.154 268.47 580.849 267.731C580.544 266.992 580.387 266.2 580.389 265.4V248.981C580.387 248.182 580.544 247.39 580.849 246.65C581.154 245.911 581.602 245.239 582.167 244.673C582.732 244.107 583.403 243.658 584.142 243.352C584.881 243.045 585.673 242.888 586.473 242.888C587.273 242.888 588.065 243.045 588.803 243.352C589.542 243.658 590.213 244.107 590.778 244.673C591.343 245.239 591.791 245.911 592.097 246.65C592.402 247.39 592.558 248.182 592.557 248.981V265.371C592.562 266.173 592.408 266.968 592.105 267.711C591.801 268.454 591.354 269.129 590.789 269.698C590.223 270.267 589.551 270.719 588.81 271.027C588.069 271.335 587.275 271.494 586.473 271.494Z"
       fill="white"
       stroke="#001E89"
       stroke-linecap="round"
       stroke-linejoin="round"
       id="path5" />
    <path
       d="M586.473 271.493C585.673 271.493 584.881 271.336 584.142 271.029C583.403 270.723 582.732 270.274 582.167 269.708C581.602 269.142 581.154 268.47 580.849 267.731C580.544 266.992 580.387 266.199 580.389 265.4V257.2H592.557V265.4C592.558 266.199 592.402 266.992 592.097 267.731C591.791 268.47 591.343 269.142 590.778 269.708C590.213 270.274 589.542 270.723 588.803 271.029C588.065 271.336 587.273 271.493 586.473 271.493Z"
       fill="#DC60C0"
       stroke="#001E89"
       stroke-linecap="round"
       stroke-linejoin="round"
       id="path7" />
    <path
       d="M555.868 247.313C555.368 246.688 554.996 245.97 554.774 245.201C554.552 244.432 554.484 243.627 554.574 242.832C554.664 242.036 554.91 241.267 555.299 240.567C555.688 239.867 556.211 239.251 556.838 238.754L569.618 228.488C570.883 227.482 572.496 227.019 574.103 227.201C575.709 227.383 577.177 228.195 578.186 229.458C579.191 230.722 579.654 232.333 579.472 233.938C579.29 235.543 578.478 237.01 577.216 238.017L564.426 248.273C563.802 248.773 563.084 249.144 562.316 249.366C561.548 249.589 560.743 249.657 559.948 249.568C559.153 249.479 558.383 249.233 557.683 248.846C556.983 248.459 556.366 247.938 555.868 247.313Z"
       fill="white"
       stroke="#001E89"
       stroke-linecap="round"
       stroke-linejoin="round"
       id="path9" />
    <path
       d="M555.868 247.314C555.368 246.689 554.996 245.972 554.774 245.203C554.552 244.434 554.484 243.629 554.574 242.833C554.664 242.038 554.91 241.268 555.299 240.568C555.688 239.869 556.211 239.253 556.838 238.756L563.233 233.623L570.85 243.122L564.455 248.246C563.832 248.751 563.114 249.129 562.344 249.356C561.574 249.583 560.766 249.655 559.968 249.568C559.169 249.482 558.396 249.238 557.692 248.851C556.989 248.464 556.369 247.942 555.868 247.314Z"
       fill="#48487F"
       stroke="#001E89"
       stroke-linecap="round"
       stroke-linejoin="round"
       id="path11" />
    <path
       d="M533.946 56.0108C533.086 56.0112 532.247 56.2804 531.548 56.7809L515.52 44.3391C516.305 42.8852 516.674 41.2426 516.584 39.5925C516.495 37.9424 515.951 36.3491 515.014 34.9885L524.804 22.4697C525.633 22.7892 526.542 22.8351 527.398 22.6006C528.255 22.3661 529.014 21.8635 529.564 21.1665C530.114 20.4695 530.427 19.6146 530.456 18.7271C530.486 17.8395 530.23 16.9659 529.727 16.2341C529.224 15.5023 528.5 14.9509 527.66 14.6604C526.821 14.3699 525.911 14.3557 525.063 14.6199C524.215 14.8841 523.474 15.4127 522.949 16.1285C522.423 16.8442 522.14 17.7094 522.142 18.5975C522.137 19.4533 522.403 20.2888 522.901 20.9846L513.374 33.1844C512.097 32.1086 510.545 31.4102 508.893 31.1673C507.24 30.9244 505.553 31.1467 504.02 31.8092C502.487 32.4718 501.169 33.5484 500.213 34.9183C499.258 36.2882 498.703 37.8972 498.611 39.5648H487.479C487.357 38.5766 486.885 37.6648 486.148 36.9952C485.411 36.3256 484.459 35.9426 483.464 35.9158C482.468 35.889 481.496 36.2203 480.725 36.8493C479.953 37.4783 479.432 38.3633 479.258 39.3435C479.083 40.3238 479.266 41.3341 479.773 42.1908C480.281 43.0476 481.078 43.694 482.022 44.0124C482.965 44.3309 483.991 44.3003 484.914 43.9262C485.837 43.5521 486.594 42.8594 487.05 41.9739H498.82C499.165 43.5734 499.939 45.0488 501.059 46.2412C502.179 47.4337 503.603 48.2982 505.178 48.7417C506.753 49.1852 508.419 49.1909 509.997 48.7583C511.575 48.3256 513.005 47.4709 514.133 46.2862L530.073 58.684C529.759 59.5109 529.717 60.4168 529.954 61.2691C530.191 62.1215 530.695 62.8758 531.391 63.4217C532.087 63.9676 532.94 64.2765 533.824 64.3034C534.708 64.3303 535.578 64.0737 536.306 63.5711C537.034 63.0684 537.582 62.3462 537.871 61.5097C538.159 60.6733 538.172 59.7666 537.909 58.9221C537.645 58.0776 537.118 57.3395 536.405 56.8158C535.692 56.292 534.83 56.0099 533.946 56.0108Z"
       fill="#001E89"
       id="path13" />
    <path
       d="M208.029 329.021C206.081 329.017 204.214 328.241 202.836 326.863C201.459 325.486 200.683 323.619 200.679 321.671V260.552H215.379V321.671C215.379 323.62 214.605 325.49 213.226 326.868C211.848 328.246 209.978 329.021 208.029 329.021Z"
       fill="white"
       stroke="#001E89"
       stroke-linecap="round"
       stroke-linejoin="round"
       id="path15" />
    <path
       d="M208.029 329.022C206.081 329.018 204.214 328.242 202.836 326.864C201.459 325.487 200.683 323.62 200.679 321.672V284.084H215.379V321.672C215.379 323.621 214.605 325.491 213.226 326.869C211.848 328.248 209.978 329.022 208.029 329.022Z"
       fill="#DC60C0"
       fill-opacity="0.33"
       stroke="#001E89"
       stroke-opacity="0.33"
       stroke-linecap="round"
       stroke-linejoin="round"
       id="path17" />
    <path
       d="M217.481 256.982H198.583V262.338H217.481V256.982Z"
       fill="white"
       stroke="#001E89"
       stroke-linecap="round"
       stroke-linejoin="round"
       id="path19" />
    <path
       d="M185.749 329.021C183.801 329.017 181.934 328.241 180.556 326.863C179.178 325.486 178.403 323.619 178.398 321.671V260.552H193.099V321.671C193.099 323.62 192.325 325.49 190.946 326.868C189.568 328.246 187.698 329.021 185.749 329.021Z"
       fill="white"
       stroke="#001E89"
       stroke-linecap="round"
       stroke-linejoin="round"
       id="path21" />
    <path
       d="M185.749 329.022C183.801 329.018 181.934 328.242 180.556 326.864C179.178 325.487 178.403 323.62 178.398 321.672V284.084H193.099V321.672C193.099 323.621 192.325 325.491 190.946 326.869C189.568 328.248 187.698 329.022 185.749 329.022Z"
       fill="#DC60C0"
       fill-opacity="0.33"
       stroke="#001E89"
       stroke-opacity="0.33"
       stroke-linecap="round"
       stroke-linejoin="round"
       id="path23" />
    <path
       d="M195.207 256.982H176.309V262.338H195.207V256.982Z"
       fill="white"
       stroke="#001E89"
       stroke-linecap="round"
       stroke-linejoin="round"
       id="path25" />
    <path
       d="M133.855 553.924L127.294 556.2L120.195 535.733L126.756 533.458L133.855 553.924Z"
       fill="white"
       stroke="#001E89"
       stroke-miterlimit="10"
       id="path27" />
    <path
       d="M136.962 557.173L126.836 560.685L125.499 556.829L135.624 553.317L136.962 557.173Z"
       fill="white"
       stroke="#001E89"
       stroke-miterlimit="10"
       id="path29" />
    <path
       d="M133.985 538.724L117.767 544.35L104.906 507.272L121.125 501.647L133.985 538.724Z"
       fill="white"
       stroke="#001E89"
       stroke-miterlimit="10"
       id="path31" />
    <path
       d="M128.221 537.697L121.66 539.973L114.561 519.506L121.122 517.231L128.221 537.697Z"
       fill="#001E89"
       stroke="#001E89"
       stroke-miterlimit="10"
       id="path33" />
    <path
       d="M126.103 522.865L114.132 527.018L107.033 506.551L119.004 502.399L126.103 522.865Z"
       fill="#DC60C0"
       stroke="#001E89"
       stroke-miterlimit="10"
       id="path35" />
    <path
       d="M135.134 538.333L116.602 544.761L114.992 540.121L133.525 533.693L135.134 538.333Z"
       fill="white"
       stroke="#001E89"
       stroke-miterlimit="10"
       id="path37" />
    <path
       d="M117.172 500.875L107.514 504.225L105.369 498.043L115.027 494.693L117.172 500.875Z"
       fill="white"
       stroke="#001E89"
       stroke-miterlimit="10"
       id="path39" />
    <path
       d="M122.679 502.416L104.146 508.844L102.537 504.204L121.07 497.776L122.679 502.416Z"
       fill="white"
       stroke="#001E89"
       stroke-miterlimit="10"
       id="path41" />
    <path
       d="M110.104 495.527L102.343 473.129"
       stroke="#001E89"
       stroke-miterlimit="10"
       id="path43" />
    <path
       d="M89.4104 162.847C82.0185 172.736 72.5881 180.921 61.7578 186.849C50.9274 180.921 41.4971 172.736 34.1052 162.847C24.3704 149.964 24.8504 129.791 38.7828 125.437C54.1888 120.637 61.7578 143.868 61.7578 143.868C61.7578 143.868 69.4385 120.536 84.744 125.515C98.6205 129.981 99.1452 149.997 89.4104 162.847Z"
       fill="#DC60C0"
       id="path45" />
    <path
       d="M50.9016 176.705L46.6929 159.223L43.9577 165.385H27V163.409H42.6739L47.2622 153.105L50.5332 166.736L55.155 138.492L59.2409 160.842L62.4784 151.509L67.5691 166.781L68.6966 163.409H96.5502V165.374H70.1144L67.5691 173.01L62.4449 157.638L58.6604 168.578L55.2666 150.046L50.9016 176.705Z"
       fill="white"
       id="path47" />
    <g
       filter="url(#filter0_d_726_794)"
       id="g123">
      <path
         d="M233.97 406.335C257.731 381.842 297.204 324.731 297.204 324.731L321.543 240.546C322.12 240.778 309.142 240.816 305.214 240.546C278.911 242.318 271.171 244.398 254.804 262.459C241.826 276.669 193.803 351.342 176.55 374.14L129.336 308.903C118.399 292.343 120.171 273.82 114.471 260.264C108.771 246.708 99.6059 240.778 92.2504 228.57C84.8949 216.362 83.1234 208.352 77.0772 214.59C71.031 220.829 78.0015 237.697 78.9258 241.548C79.85 245.399 89.0155 256.952 73.6497 250.867C58.284 244.783 34.4844 216.747 28.3227 211.009C22.161 205.271 18.9646 214.167 20.351 221.214C21.7374 228.262 15.1136 244.321 17.5398 255.874C20.0815 268.236 21.8915 273.897 33.7913 285.874C44.9209 297.08 72.0708 310.79 82.6997 325.462C93.3287 340.135 116.011 385.732 129.875 413.228C147.513 448.157 166.846 468.029 189.644 448.504C207.128 433.292 225.151 415.423 233.97 406.335Z"
         fill="#FFBDA7"
         id="path49" />
      <path
         d="M294.739 239.892C274.598 241.741 263.931 246.323 243.828 272.665C223.726 299.006 177.051 368.364 177.051 368.364L136.73 319.031C136.73 319.031 108.964 340.174 94.3683 364.898C94.3683 364.898 133.38 430.366 149.015 446.887C164.65 463.408 176.743 464.717 198.001 446.887C219.258 429.056 280.567 361.432 280.567 361.432L294.739 239.892Z"
         fill="#F0F0F0"
         id="path51" />
      <path
         d="M177.05 368.363C186.177 381.572 192.07 403.023 190.452 413.844C190.452 413.844 203.161 399.21 181.787 361.354L177.05 368.363Z"
         fill="#E0E0E0"
         id="path53" />
      <path
         d="M471.926 570.582C472.812 615.023 482.247 909.129 482.247 909.129C485.508 933.164 487.45 957.359 488.062 981.606C489.294 1040.37 476.971 1179.86 476.971 1179.86C474.236 1192.53 426.907 1197.69 420.63 1186.25C420.63 1186.25 394.75 983.917 387.395 925.766C381.002 875.009 359.86 709.028 359.86 709.028L343.531 872.12C344.156 891.129 343.706 910.158 342.183 929.116C340.296 956.074 326.779 1114.7 326.779 1114.7C326.548 1124.6 277.332 1132.76 269.013 1118.2C269.013 1118.2 253.609 886.523 252.954 861.838C252.415 833.687 256.343 567.386 256.343 567.386L471.926 570.582Z"
         fill="#37474F"
         id="path55" />
      <path
         d="M398.142 234.924C406.422 236.888 432.802 244.012 454.214 251.56C465.01 255.682 474.376 262.854 481.171 272.202C496.575 294.885 482.711 345.372 471.274 440.262C472.121 501.571 473.893 577.822 473.893 577.822C445.703 598.349 314.189 612.29 254.844 568.965C254.844 568.965 252.88 338.864 256.808 308.941C264.51 251.637 286.731 236.349 333.021 233.653L398.142 234.924Z"
         fill="#DC60C0"
         id="path57" />
      <path
         opacity="0.6"
         d="M398.142 234.924C406.422 236.888 432.802 244.012 454.214 251.56C465.01 255.682 474.376 262.854 481.171 272.202C496.575 294.885 482.711 345.372 471.274 440.262C472.121 501.571 473.893 577.822 473.893 577.822C445.703 598.349 314.189 612.29 254.844 568.965C254.844 568.965 252.88 338.864 256.808 308.941C264.51 251.637 286.731 236.349 333.021 233.653L398.142 234.924Z"
         fill="white"
         id="path59" />
      <path
         d="M317.306 302.164C313.147 316.49 288.538 417.156 292.004 452.586C294.646 470.768 299.562 488.545 306.638 505.5C317.306 530.724 324.43 508.157 330.361 493.253C335.378 479.358 338.739 464.92 340.374 450.237C342.338 431.213 334.674 373.408 337.64 305.63C335.401 302.476 332.002 300.339 328.19 299.69C324.377 299.04 320.463 299.93 317.306 302.164Z"
         fill="#DC60C0"
         id="path61" />
      <path
         opacity="0.2"
         d="M317.306 302.164C313.147 316.49 288.538 417.156 292.004 452.586C294.646 470.768 299.562 488.545 306.638 505.5C317.306 530.724 324.43 508.157 330.361 493.253C335.378 479.358 338.739 464.92 340.374 450.237C342.338 431.213 334.674 373.408 337.64 305.63C335.401 302.476 332.002 300.339 328.19 299.69C324.377 299.04 320.463 299.93 317.306 302.164Z"
         fill="black"
         id="path63" />
      <path
         d="M316.381 269.815C306.638 278.134 317.305 302.126 317.305 302.126C324.277 300.623 331.559 301.865 337.639 305.592C337.639 305.592 356.894 297.312 357.087 282.909C357.087 269.815 343.185 274.013 333.287 272.28C322.928 270.47 317.536 262.807 316.381 269.815Z"
         fill="#DC60C0"
         id="path65" />
      <path
         opacity="0.2"
         d="M316.381 269.815C306.638 278.134 317.305 302.126 317.305 302.126C324.277 300.623 331.559 301.865 337.639 305.592C337.639 305.592 356.894 297.312 357.087 282.909C357.087 269.815 343.185 274.013 333.287 272.28C322.928 270.47 317.536 262.807 316.381 269.815Z"
         fill="black"
         id="path67" />
      <path
         opacity="0.2"
         d="M317.303 302.163C318.882 296.541 326.546 297.08 332.707 295.154C336.162 293.785 339.053 291.288 340.91 288.068C344.068 282.638 340.91 273.627 336.52 272.664C345.955 273.319 357.161 271.162 357.123 282.908C357.123 297.311 337.675 305.591 337.675 305.591C331.579 301.867 324.282 300.639 317.303 302.163Z"
         fill="black"
         id="path69" />
      <path
         d="M384.279 101.909C383.941 113.742 380.106 125.211 373.257 134.866C366.407 144.522 356.852 151.933 345.795 156.164C334.738 160.394 322.676 161.255 311.131 158.637C299.586 156.02 289.075 150.041 280.924 141.455C272.773 132.87 267.348 122.062 265.333 110.397C263.318 98.7312 264.804 86.7301 269.602 75.908C274.401 65.0859 282.298 55.9276 292.296 49.5889C302.295 43.2502 313.946 40.0151 325.782 40.2918C333.675 40.4763 341.454 42.2188 348.671 45.4192C355.889 48.6196 362.403 53.2147 367.839 58.9406C373.275 64.6664 377.525 71.4101 380.347 78.784C383.168 86.1579 384.505 94.0167 384.279 101.909Z"
         fill="#282F46"
         id="path71" />
      <path
         d="M426.907 145.425C426.907 145.425 416.086 190.79 412.042 198.184C409.361 202.739 405.032 206.09 399.95 207.542L401.375 175.463L426.907 145.425Z"
         fill="#282F46"
         id="path73" />
      <path
         d="M416.277 79.7644C419.663 79.4685 423.073 79.9457 426.249 81.1598C429.424 82.374 432.282 84.2934 434.608 86.7733C442.31 95.1301 437.342 120.586 426.906 145.425L408.575 147.081L416.277 79.7644Z"
         fill="#282F46"
         id="path75" />
      <path
         d="M403.069 146.965C406.689 149.237 412.08 142.306 416.74 137.684C421.4 133.063 436.265 126.978 443.274 142.652C450.283 158.326 435.88 179.199 424.018 182.588C403.839 188.403 401.143 175.463 401.143 175.463L397.716 257.26C383.428 274.705 349.808 275.668 333.133 272.279C319.808 269.583 319.616 260.148 332.748 245.668L333.364 222.215C324.432 223.437 315.394 223.696 306.407 222.985C291.734 220.328 282.684 208.505 278.641 192.446C272.479 167.915 270.938 140.534 277.139 95.7077C284.841 40.599 349.346 41.7928 383.505 64.2445C417.664 86.6962 403.069 146.965 403.069 146.965Z"
         fill="#FFBDA7"
         id="path77" />
      <path
         d="M402.916 153.128C404.764 153.128 412.081 141.575 416.741 137.723C423.172 132.139 416.279 79.9575 416.279 79.9575C418.546 75.4097 419.391 70.2846 418.704 65.2497C418.017 60.2149 415.83 55.5035 412.428 51.7292C403.994 41.986 392.21 30.0477 352.775 33.7447C324.662 36.4019 293.931 44.4121 269.592 31.7036C267.113 39.6891 267.075 48.233 269.483 56.2401C271.892 64.2472 276.636 71.3526 283.109 76.6455C283.109 76.6455 291.928 82.6147 315.304 86.0036C338.68 89.3926 375.342 86.8894 380.349 86.3502C387.165 85.58 388.474 92.2038 391.709 110.304C394.713 126.016 396.716 152.858 402.916 153.128Z"
         fill="#282F46"
         id="path79" />
      <path
         d="M416.122 83.8473L438.612 72.2941C437.94 70.7813 436.967 69.4211 435.752 68.2961C434.538 67.1712 433.107 66.305 431.547 65.7503C429.988 65.1955 428.331 64.9638 426.679 65.0692C425.027 65.1746 423.414 65.615 421.937 66.3634C418.888 67.9533 416.577 70.6662 415.492 73.9288C414.407 77.1914 414.633 80.7481 416.122 83.8473Z"
         fill="#282F46"
         id="path81" />
      <path
         d="M333.522 222.216C333.522 222.216 366.565 216.401 378.195 210.663C385.046 207.29 390.712 201.919 394.446 195.258C392.549 201.942 389.327 208.176 384.973 213.589C376.308 224.141 333.291 231.689 333.291 231.689L333.522 222.216Z"
         fill="#F0997A"
         id="path83" />
      <path
         d="M344.571 138.918C344.693 140.202 345.189 141.421 345.998 142.425C346.807 143.429 347.893 144.174 349.121 144.567C350.349 144.959 351.665 144.983 352.907 144.635C354.148 144.286 355.26 143.581 356.104 142.606C356.948 141.632 357.488 140.431 357.656 139.152C357.824 137.874 357.613 136.575 357.049 135.415C356.485 134.255 355.593 133.287 354.484 132.629C353.375 131.972 352.097 131.655 350.81 131.717C349.027 131.845 347.369 132.675 346.199 134.026C345.03 135.376 344.444 137.136 344.571 138.918Z"
         fill="#001E89"
         id="path85" />
      <path
         d="M348.846 114.116L363.326 121.163C364.239 119.181 364.348 116.921 363.63 114.86C362.912 112.799 361.423 111.097 359.475 110.111C358.522 109.628 357.479 109.349 356.413 109.291C355.346 109.233 354.279 109.398 353.279 109.774C352.28 110.151 351.37 110.732 350.606 111.479C349.843 112.226 349.244 113.124 348.846 114.116Z"
         fill="#001E89"
         id="path87" />
      <path
         d="M340.798 183.28L320.233 188.903C320.557 190.262 321.149 191.542 321.975 192.669C322.801 193.796 323.844 194.746 325.042 195.464C326.241 196.181 327.571 196.652 328.954 196.848C330.337 197.044 331.745 196.961 333.096 196.605C335.839 195.787 338.164 193.951 339.596 191.474C341.028 188.996 341.458 186.065 340.798 183.28Z"
         fill="#F0997A"
         id="path89" />
      <path
         d="M280.569 120.237L295.974 114.961C295.708 113.927 295.231 112.96 294.572 112.12C293.912 111.28 293.086 110.586 292.144 110.083C291.203 109.58 290.167 109.278 289.103 109.196C288.038 109.114 286.968 109.255 285.961 109.608C283.85 110.322 282.102 111.834 281.094 113.822C280.086 115.809 279.898 118.113 280.569 120.237Z"
         fill="#001E89"
         id="path91" />
      <path
         d="M288.268 137.069C288.172 137.944 288.249 138.83 288.495 139.675C288.741 140.52 289.151 141.309 289.702 141.995C290.252 142.682 290.933 143.253 291.705 143.677C292.476 144.1 293.324 144.368 294.199 144.464C295.979 144.58 297.733 143.991 299.081 142.823C300.429 141.655 301.262 140.003 301.4 138.225C301.476 137.362 301.382 136.494 301.122 135.668C300.862 134.842 300.442 134.076 299.886 133.413C299.33 132.749 298.648 132.202 297.881 131.802C297.113 131.402 296.274 131.157 295.412 131.081C294.55 131.005 293.681 131.1 292.855 131.36C292.03 131.62 291.263 132.04 290.6 132.596C289.937 133.152 289.389 133.833 288.989 134.601C288.589 135.368 288.344 136.207 288.268 137.069Z"
         fill="#001E89"
         id="path93" />
      <path
         d="M323.817 133.334L321.43 172.961L300.788 165.798L323.817 133.334Z"
         fill="#F0997A"
         id="path95" />
      <path
         d="M333.285 272.277C351.578 268.426 394.902 251.52 398.985 230.378L399.524 218.825C406.648 218.825 409.883 226.719 413.387 238.08C414.851 267.964 383.311 295.268 351.77 302.624C350.712 295.695 348.346 289.03 344.8 282.983C342.111 278.35 338.102 274.623 333.285 272.277Z"
         fill="#DC60C0"
         id="path97" />
      <path
         d="M333.443 225.141C328.615 226.622 324.224 229.267 320.658 232.843C296.974 257.375 310.491 289.531 310.491 289.531C311.715 284.183 314.765 279.43 319.117 276.091C323.28 273.263 328.268 271.907 333.289 272.24C327.474 266.039 329.746 255.218 332.904 245.629L333.443 225.141Z"
         fill="#DC60C0"
         id="path99" />
      <path
         d="M264.585 119.162L267.781 118.854C278.476 117.553 289.306 117.891 299.899 119.855C310.22 122.666 313.956 125.786 319.617 125.863C325.278 125.94 329.398 122.743 340.181 119.971C351.496 118.071 363.025 117.799 374.417 119.162L377.883 119.547L426.907 132.718C422.693 133.382 418.819 135.428 415.893 138.533L380.155 128.867C379.655 129.56 379.154 130.176 378.807 130.6C378.314 131.323 377.961 132.133 377.768 132.987C377.085 138.53 375.886 143.996 374.186 149.316C373.179 151.51 371.768 153.496 370.027 155.169C369.36 155.809 368.639 156.389 367.87 156.902L366.6 157.673C365.372 158.336 364.082 158.878 362.748 159.29L362.094 159.482L361.093 159.752L360.014 159.983C358.895 160.207 357.763 160.361 356.625 160.445H355.2H353.39C339.296 160.445 333.211 154.438 329.475 148.237C325.74 142.037 326.317 133.295 319.848 133.295H319.231H318.654C313.879 134.258 314.803 142.307 311.953 148.045C310.879 150.462 309.379 152.667 307.524 154.553L306.484 155.516L305.907 155.978L305.291 156.44L304.751 156.787L304.174 157.172L303.712 157.441H303.365C301.621 158.369 299.754 159.043 297.82 159.444H297.319C295.074 159.884 292.79 160.09 290.502 160.06C277.332 160.06 272.518 153.013 270.207 148.507C268.187 143.198 266.641 137.721 265.586 132.14C265.341 131.321 264.89 130.579 264.277 129.983C262.632 128.347 261.519 126.254 261.08 123.976C261.047 122.898 261.373 121.84 262.007 120.968C262.642 120.096 263.549 119.461 264.585 119.162ZM332.98 142.499C333.93 145.816 335.783 148.802 338.333 151.126C342.638 154.701 348.154 156.48 353.737 156.094C356.48 156.292 359.23 155.829 361.756 154.743C364.283 153.657 366.512 151.981 368.255 149.855L368.718 149.239C368.86 149.042 368.988 148.836 369.103 148.622C369.246 148.448 369.363 148.253 369.449 148.045L369.757 147.544L369.95 147.121C369.95 147.121 369.95 146.851 370.143 146.735C370.335 146.62 370.335 146.35 370.412 146.119C370.682 145.503 370.874 144.887 371.067 144.309C371.067 143.924 371.298 143.578 371.375 143.231C371.452 142.884 371.683 141.999 371.798 141.46C371.914 140.92 371.798 141.267 371.798 141.151V140.805C372.723 136.492 373.686 128.019 371.182 126.094C368.679 124.168 362.209 122.243 351.927 123.013H350.81C349.218 123.16 347.636 123.404 346.073 123.745L344.225 124.13C342.662 124.5 341.12 124.949 339.604 125.478L338.217 126.017L336.677 126.671H336.369L335.83 126.98C334.669 127.5 333.631 128.261 332.787 129.213C330.631 132.063 331.632 137.685 332.98 142.499ZM271.786 140.42C272.337 143.385 273.565 146.182 275.376 148.594C277.186 151.005 279.529 152.966 282.223 154.322C284.663 155.338 287.281 155.861 289.925 155.863C292.827 156.185 295.764 155.764 298.459 154.639C301.153 153.514 303.518 151.722 305.329 149.431C305.432 149.312 305.522 149.183 305.599 149.046C305.715 148.901 305.818 148.747 305.907 148.584V148.353L306.292 147.66L306.677 146.851C306.683 146.723 306.683 146.594 306.677 146.466V146.119C306.7 146.031 306.7 145.938 306.677 145.85C307.086 144.819 307.383 143.748 307.563 142.653C308.487 137.84 308.834 132.217 306.754 129.56C304.674 126.902 296.857 123.976 289.386 123.128C287.653 123.128 286.035 122.82 284.572 122.782H280.297H279.026C278.212 122.851 277.402 122.967 276.6 123.128H276.061H275.676H275.098L274.405 123.321L273.288 123.745C272.372 124.085 271.515 124.566 270.747 125.17C269.014 127.634 270.631 136.145 271.786 140.42Z"
         fill="#37474F"
         id="path101" />
      <path
         d="M398.908 231.651C398.908 231.651 384.967 301.625 378.96 348.954C372.952 396.284 374.069 529.954 377.304 614.678C379.614 676.295 388.857 790.594 388.857 790.594C388.857 790.594 404.261 793.675 440.885 787.591C472.233 782.43 488.099 773.149 494.8 769.105C494.8 769.105 488.985 595.538 484.556 534.922C480.512 479.043 480.705 448.312 480.705 448.312L493.876 320.726C493.876 320.726 492.874 240.547 467.996 237.158C442.31 233.653 398.908 231.651 398.908 231.651Z"
         fill="#FAFAFA"
         id="path103" />
      <path
         d="M422.71 346.413C422.71 343.487 423.019 337.171 423.519 329.161C425.984 290.072 422.402 233.5 409.232 230.689L408.038 236.08C417.704 238.16 419.206 309.828 418.012 328.814C417.473 336.978 417.088 343.41 417.203 346.645L422.71 346.413Z"
         fill="#DC60C0"
         id="path105" />
      <path
         d="M457.716 237.156C457.716 237.156 487.331 236.733 503.929 251.675C520.527 266.617 529.346 306.591 540.091 346.681C550.835 386.77 560.386 425.666 563.197 453.548C565.585 476.654 557.805 599.349 557.805 599.349C557.805 599.349 523.955 606.474 497.921 592.186L496.805 456.051L453.865 319.569C446.024 292.425 447.378 263.451 457.716 237.156Z"
         fill="#F0F0F0"
         id="path107" />
      <path
         d="M399.951 208.851C403.802 208.043 407.384 210.084 410.542 215.475C413.7 220.867 420.67 232.189 420.67 232.189C420.67 232.189 424.251 269.775 420.67 279.133C417.551 287.221 396.87 325.346 396.87 325.346C396.87 325.346 398.218 362.47 398.565 373.561C398.911 384.652 377.422 430.942 374.996 452.431C374.996 452.431 373.918 365.051 377.114 340.75C382.66 298.389 389.592 247.94 398.95 230.61L399.951 208.851Z"
         fill="#EBEBEB"
         id="path109" />
      <path
         d="M430.76 476.078H431.222V472.227C426.655 471.873 422.279 470.245 418.591 467.529C422.546 464.895 426.089 461.69 429.104 458.016C435.304 449.968 448.898 392.548 444.739 379.185C441.196 367.979 430.182 343.255 420.401 342.831H420.131C410.349 342.831 397.448 366.207 393.174 376.99C387.859 389.968 396.524 448.312 402.031 456.861C404.714 460.78 407.973 464.273 411.697 467.22C407.806 469.642 403.302 470.898 398.719 470.84L398.218 474.692C404.209 474.781 410.087 473.063 415.086 469.762C419.62 473.287 425.049 475.475 430.76 476.078ZM419.938 346.644C425.715 346.875 436.036 365.244 440.773 380.263C444.624 392.548 431.53 448.119 425.792 455.552C422.693 459.272 419.028 462.482 414.932 465.064C411.047 462.158 407.653 458.648 404.881 454.666C399.797 446.771 391.479 390.315 396.37 378.376C402.301 363.781 414.008 346.644 419.823 346.644H419.938Z"
         fill="#282F46"
         id="path111" />
      <path
         d="M392.249 472.497C392.213 473.239 392.324 473.981 392.576 474.679C392.828 475.378 393.216 476.019 393.717 476.567C394.218 477.115 394.823 477.558 395.497 477.871C396.17 478.184 396.899 478.36 397.641 478.389C398.384 478.422 399.127 478.308 399.826 478.054C400.526 477.8 401.168 477.411 401.717 476.908C402.266 476.406 402.71 475.8 403.025 475.126C403.34 474.452 403.519 473.722 403.552 472.979C403.585 472.235 403.471 471.493 403.217 470.793C402.963 470.094 402.573 469.451 402.071 468.902C401.569 468.354 400.963 467.909 400.289 467.594C399.614 467.279 398.885 467.1 398.141 467.067C397.398 467.036 396.655 467.152 395.957 467.409C395.258 467.665 394.617 468.056 394.069 468.561C393.522 469.065 393.08 469.672 392.767 470.348C392.455 471.023 392.279 471.754 392.249 472.497Z"
         fill="#001E89"
         id="path113" />
      <path
         d="M425.367 473.881C425.336 474.625 425.452 475.367 425.708 476.066C425.964 476.765 426.356 477.406 426.86 477.953C427.364 478.5 427.972 478.943 428.647 479.255C429.323 479.567 430.053 479.744 430.797 479.773C431.538 479.809 432.28 479.698 432.978 479.446C433.677 479.195 434.319 478.807 434.866 478.305C435.414 477.804 435.857 477.199 436.17 476.526C436.483 475.852 436.659 475.124 436.689 474.382C436.722 473.638 436.608 472.896 436.354 472.196C436.099 471.497 435.71 470.854 435.208 470.305C434.705 469.757 434.1 469.312 433.425 468.997C432.751 468.682 432.021 468.503 431.278 468.47C430.535 468.438 429.792 468.551 429.093 468.805C428.393 469.06 427.751 469.449 427.202 469.951C426.653 470.454 426.208 471.06 425.893 471.734C425.579 472.408 425.4 473.138 425.367 473.881Z"
         fill="#001E89"
         id="path115" />
      <path
         d="M391.823 402.292L395.058 402.061C395.225 402.051 395.388 402.009 395.539 401.936C395.689 401.862 395.824 401.76 395.935 401.635C396.046 401.51 396.131 401.364 396.185 401.206C396.239 401.048 396.262 400.88 396.252 400.713C395.597 389.93 395.944 381.997 397.253 378.839C402.952 364.898 414.775 347.453 419.897 347.684C425.019 347.915 435.301 366.285 439.846 380.649C440.812 387.936 440.525 395.333 438.999 402.523C438.943 402.855 439.021 403.196 439.216 403.47C439.411 403.744 439.707 403.93 440.038 403.987L443.273 404.487C443.44 404.509 443.61 404.497 443.772 404.452C443.935 404.408 444.087 404.331 444.219 404.227C444.352 404.123 444.462 403.994 444.545 403.847C444.627 403.7 444.679 403.538 444.698 403.37C446.47 391.394 446.701 383.152 445.353 378.916C442.965 371.214 431.604 342.37 420.167 341.869C408.729 341.368 394.942 369.173 391.9 376.529C390.206 380.649 389.705 388.852 390.475 400.944C390.464 401.124 390.491 401.305 390.555 401.473C390.618 401.642 390.717 401.795 390.845 401.922C390.972 402.05 391.126 402.149 391.294 402.213C391.463 402.276 391.643 402.303 391.823 402.292Z"
         fill="#DC60C0"
         id="path117" />
      <path
         d="M333.521 222.216C328.437 222.678 324.009 230.188 312.301 233.77C290.427 240.239 270.556 250.175 264.433 263.615C254.266 285.874 252.61 290.265 249.028 389.391C245.447 488.517 244.176 770.646 244.176 770.646C254.679 775.393 266.121 777.697 277.642 777.386C277.642 777.386 276.756 465.835 278.836 395.784C280.915 325.733 291.544 291.535 306.717 268.429C310.992 249.174 324.625 236.311 333.675 226.915L333.521 222.216Z"
         fill="#FAFAFA"
         id="path119" />
      <path
         d="M306.64 268.504C291.467 291.611 280.876 325.77 278.758 395.859C278.527 404.177 278.296 415.885 278.103 429.941C278.103 429.941 265.626 366.476 267.821 352.92C270.016 339.364 284.65 311.482 284.65 311.482C282.763 288.376 288.155 261.958 297.051 246.014C299.12 242.299 301.714 238.9 304.753 235.924C307.709 233.527 310.866 231.389 314.188 229.532C319.883 225.481 326.504 222.926 333.443 222.099V226.874C324.547 236.387 310.915 249.172 306.64 268.504Z"
         fill="#EBEBEB"
         id="path121" />
    </g>
  </g>
  <defs
     id="defs144">
    <filter
       id="filter0_d_726_794"
       x="-18"
       y="-11.2964"
       width="644.652"
       height="1396.06"
       filterUnits="userSpaceOnUse"
       color-interpolation-filters="sRGB">
      <feFlood
         flood-opacity="0"
         result="BackgroundImageFix"
         id="feFlood127" />
      <feColorMatrix
         in="SourceAlpha"
         type="matrix"
         values="0 0 0 0 0 0 0 0 0 0 0 0 0 0 0 0 0 0 127 0"
         result="hardAlpha"
         id="feColorMatrix129" />
      <feOffset
         dx="14"
         dy="6"
         id="feOffset131" />
      <feGaussianBlur
         stdDeviation="24.5"
         id="feGaussianBlur133" />
      <feComposite
         in2="hardAlpha"
         operator="out"
         id="feComposite135" />
      <feColorMatrix
         type="matrix"
         values="0 0 0 0 0 0 0 0 0 0 0 0 0 0 0 0 0 0 0.2 0"
         id="feColorMatrix137" />
      <feBlend
         mode="normal"
         in2="BackgroundImageFix"
         result="effect1_dropShadow_726_794"
         id="feBlend139" />
      <feBlend
         mode="normal"
         in="SourceGraphic"
         in2="effect1_dropShadow_726_794"
         result="shape"
         id="feBlend141" />
    </filter>
  </defs>
</svg>
