<svg width="49" height="45" viewBox="0 0 49 45" fill="none" xmlns="http://www.w3.org/2000/svg">
<path d="M12.5414 26.6173C11.7095 26.1261 11.0747 25.3494 10.7498 24.4252C10.4248 23.501 10.4307 22.4891 10.7664 21.5689C10.8504 21.3372 10.869 21.086 10.8201 20.844C10.7712 20.602 10.6567 20.3789 10.4898 20.2002L9.32617 18.9473C9.17311 18.7808 8.98017 18.6579 8.76642 18.5909C8.55268 18.5239 8.32554 18.515 8.10743 18.5652C7.59321 18.687 7.0575 18.677 6.54801 18.5359C6.03852 18.3948 5.57108 18.1271 5.18734 17.7567C4.8036 17.3862 4.51547 16.9244 4.34863 16.4126C4.18179 15.9007 4.14142 15.3546 4.2311 14.8229C4.32079 14.2912 4.53774 13.7904 4.86265 13.3652C5.18756 12.94 5.61034 12.6035 6.09329 12.3858C6.57625 12.1681 7.1044 12.0758 7.63069 12.1173C8.15698 12.1587 8.66507 12.3326 9.10968 12.6234C9.23533 12.7075 9.38541 12.745 9.53483 12.7295C9.68425 12.714 9.82394 12.6465 9.93053 12.5384L11.4981 10.9249C11.552 10.8692 11.5895 10.7991 11.6061 10.7226C11.6228 10.6461 11.618 10.5664 11.5923 10.4926C11.435 10.03 11.4432 9.52542 11.6153 9.06841C11.7874 8.61139 12.1124 8.2315 12.5326 7.99614C12.9527 7.76078 13.4408 7.68517 13.9103 7.78275C14.3798 7.88033 14.8003 8.14477 15.0972 8.52914C15.3941 8.91352 15.5481 9.39298 15.532 9.88241C15.5158 10.3718 15.3306 10.8396 15.009 11.2027C14.6875 11.5658 14.2506 11.8007 13.7757 11.8657C13.3009 11.9308 12.8188 11.8217 12.4151 11.558C12.3348 11.5053 12.2393 11.4824 12.1444 11.493C12.0496 11.5036 11.9612 11.5472 11.8939 11.6164L10.3795 13.1746C10.2837 13.2741 10.2208 13.4019 10.1996 13.5399C10.1784 13.6778 10.1999 13.8191 10.2613 13.9439C10.5019 14.448 10.6117 15.0068 10.5801 15.5667C10.5485 16.1266 10.3766 16.6688 10.0809 17.1412L10.0748 17.1494C9.91606 17.4024 9.84487 17.7025 9.87267 18.0017C9.90047 18.3009 10.0257 18.5819 10.2282 18.7998L10.7203 19.3305C10.9272 19.555 11.2044 19.6984 11.5039 19.7358C11.8034 19.7732 12.1063 19.7023 12.36 19.5354C12.9663 19.133 13.6665 18.9031 14.3886 18.8693C15.1107 18.8356 15.8286 18.9992 16.4683 19.3433C17.1079 19.6875 17.6463 20.1997 18.0279 20.8273C18.4094 21.4548 18.6204 22.175 18.6391 22.9136C18.6579 23.6522 18.4836 24.3826 18.1343 25.0295C17.785 25.6764 17.2733 26.2164 16.6519 26.5939C16.0305 26.9714 15.3219 27.1728 14.599 27.1772C13.8762 27.1817 13.1652 26.9892 12.5394 26.6194L12.5414 26.6173Z" fill="url(#paint0_linear_660_471)"/>
<path d="M12.5414 26.6173C11.7095 26.1261 11.0747 25.3494 10.7498 24.4252C10.4248 23.501 10.4307 22.4891 10.7664 21.5689C10.8504 21.3372 10.869 21.086 10.8201 20.844C10.7712 20.602 10.6567 20.3789 10.4898 20.2002L9.32617 18.9473C9.17311 18.7808 8.98017 18.6579 8.76642 18.5909C8.55268 18.5239 8.32554 18.515 8.10743 18.5652C7.59321 18.687 7.0575 18.677 6.54801 18.5359C6.03852 18.3948 5.57108 18.1271 5.18734 17.7567C4.8036 17.3862 4.51547 16.9244 4.34863 16.4126C4.18179 15.9007 4.14142 15.3546 4.2311 14.8229C4.32079 14.2912 4.53774 13.7904 4.86265 13.3652C5.18756 12.94 5.61034 12.6035 6.09329 12.3858C6.57625 12.1681 7.1044 12.0758 7.63069 12.1173C8.15698 12.1587 8.66507 12.3326 9.10968 12.6234C9.23533 12.7075 9.38541 12.745 9.53483 12.7295C9.68425 12.714 9.82394 12.6465 9.93053 12.5384L11.4981 10.9249C11.552 10.8692 11.5895 10.7991 11.6061 10.7226C11.6228 10.6461 11.618 10.5664 11.5923 10.4926C11.435 10.03 11.4432 9.52542 11.6153 9.06841C11.7874 8.61139 12.1124 8.2315 12.5326 7.99614C12.9527 7.76078 13.4408 7.68517 13.9103 7.78275C14.3798 7.88033 14.8003 8.14477 15.0972 8.52914C15.3941 8.91352 15.5481 9.39298 15.532 9.88241C15.5158 10.3718 15.3306 10.8396 15.009 11.2027C14.6875 11.5658 14.2506 11.8007 13.7757 11.8657C13.3009 11.9308 12.8188 11.8217 12.4151 11.558C12.3348 11.5053 12.2393 11.4824 12.1444 11.493C12.0496 11.5036 11.9612 11.5472 11.8939 11.6164L10.3795 13.1746C10.2837 13.2741 10.2208 13.4019 10.1996 13.5399C10.1784 13.6778 10.1999 13.8191 10.2613 13.9439C10.5019 14.448 10.6117 15.0068 10.5801 15.5667C10.5485 16.1266 10.3766 16.6688 10.0809 17.1412L10.0748 17.1494C9.91606 17.4024 9.84487 17.7025 9.87267 18.0017C9.90047 18.3009 10.0257 18.5819 10.2282 18.7998L10.7203 19.3305C10.9272 19.555 11.2044 19.6984 11.5039 19.7358C11.8034 19.7732 12.1063 19.7023 12.36 19.5354C12.9663 19.133 13.6665 18.9031 14.3886 18.8693C15.1107 18.8356 15.8286 18.9992 16.4683 19.3433C17.1079 19.6875 17.6463 20.1997 18.0279 20.8273C18.4094 21.4548 18.6204 22.175 18.6391 22.9136C18.6579 23.6522 18.4836 24.3826 18.1343 25.0295C17.785 25.6764 17.2733 26.2164 16.6519 26.5939C16.0305 26.9714 15.3219 27.1728 14.599 27.1772C13.8762 27.1817 13.1652 26.9892 12.5394 26.6194L12.5414 26.6173Z" fill="url(#paint1_linear_660_471)"/>
<path d="M13.5647 25.9476C14.2638 25.9476 14.8305 25.3683 14.8305 24.6537C14.8305 23.9392 14.2638 23.3599 13.5647 23.3599C12.8656 23.3599 12.2988 23.9392 12.2988 24.6537C12.2988 25.3683 12.8656 25.9476 13.5647 25.9476Z" fill="white"/>
<path d="M5.86682 17.0694C6.32183 17.0694 6.69068 16.6924 6.69068 16.2273C6.69068 15.7623 6.32183 15.3853 5.86682 15.3853C5.41182 15.3853 5.04297 15.7623 5.04297 16.2273C5.04297 16.6924 5.41182 17.0694 5.86682 17.0694Z" fill="white"/>
<path d="M13.5307 11.5387C13.8136 11.5387 14.0429 11.3043 14.0429 11.0152C14.0429 10.7261 13.8136 10.4917 13.5307 10.4917C13.2479 10.4917 13.0186 10.7261 13.0186 11.0152C13.0186 11.3043 13.2479 11.5387 13.5307 11.5387Z" fill="white"/>
<path d="M48.0711 15.5675H40.7306L39.9028 11.7689C39.8786 11.6642 39.8193 11.5715 39.7353 11.5068C39.6513 11.442 39.5478 11.4094 39.4427 11.4144C39.3369 11.4207 39.2367 11.4655 39.1602 11.5406C39.0838 11.6157 39.0361 11.7163 39.0258 11.8242L37.7008 25.187L36.3858 3.43501C36.379 3.32046 36.3301 3.21278 36.2489 3.13355C36.1677 3.05433 36.0601 3.00941 35.9479 3.00781H35.9418C35.8305 3.00814 35.7234 3.051 35.6414 3.12796C35.5595 3.20492 35.5086 3.31042 35.4989 3.42374L34.0797 20.4633L33.1425 12.362C33.1284 12.251 33.0753 12.1491 32.993 12.0752C32.9108 12.0013 32.805 11.9605 32.6955 11.9604C32.5862 11.9619 32.4811 12.0045 32.4005 12.0801C32.3199 12.1557 32.2694 12.2589 32.2586 12.3702L31.8226 17.1748L31.3214 15.8574C31.2891 15.7718 31.2321 15.6982 31.1581 15.6462C31.084 15.5943 30.9963 15.5665 30.9065 15.5665H20.7016C20.7016 15.6023 20.6945 15.6392 20.6915 15.6761C20.7034 15.9423 20.7017 16.2091 20.6865 16.4751H30.6088L31.6793 19.3077C31.7155 19.4033 31.7822 19.4835 31.8687 19.5354C31.9551 19.5873 32.0561 19.6079 32.1554 19.5938C32.2547 19.5797 32.3464 19.5317 32.4157 19.4577C32.485 19.3836 32.5278 19.2878 32.5372 19.1858L32.7587 16.7456L33.7128 25.0088C33.7262 25.1203 33.7795 25.2229 33.8624 25.2967C33.9454 25.3704 34.0521 25.4102 34.1621 25.4083C34.272 25.4064 34.3774 25.3629 34.4579 25.2863C34.5383 25.2097 34.5882 25.1054 34.5978 24.9934L35.8757 9.66362L37.1526 30.802C37.1593 30.916 37.2078 31.0233 37.2884 31.1024C37.369 31.1816 37.4758 31.2268 37.5876 31.2292H37.5966C37.7068 31.229 37.8131 31.1869 37.8947 31.1112C37.9764 31.0355 38.0276 30.9315 38.0386 30.8194L39.6422 14.7111L39.9489 16.1186C39.9708 16.2196 40.0257 16.3098 40.1047 16.3744C40.1836 16.4391 40.2817 16.4742 40.3828 16.4741H48.0802C48.1403 16.477 48.2004 16.4675 48.2568 16.4459C48.3132 16.4244 48.3648 16.3914 48.4084 16.349C48.452 16.3065 48.4866 16.2554 48.5103 16.1988C48.534 16.1422 48.5463 16.0813 48.5463 16.0198C48.5463 15.9582 48.534 15.8973 48.5103 15.8407C48.4866 15.7842 48.452 15.7331 48.4084 15.6906C48.3648 15.6481 48.3132 15.6151 48.2568 15.5936C48.2004 15.5721 48.1403 15.5625 48.0802 15.5654L48.0711 15.5675Z" fill="url(#paint2_linear_660_471)"/>
<path d="M42.5275 11.4437C42.3721 10.2451 42.0453 9.07632 41.5573 7.97491C41.0885 6.88858 40.4372 5.89454 39.633 5.03783C38.8546 4.20936 37.9145 3.55738 36.8738 3.12418C36.3686 2.91382 35.8451 2.75294 35.3102 2.64371C34.7823 2.52957 34.2458 2.46103 33.7066 2.43882C32.6115 2.38292 31.5157 2.53756 30.4764 2.89469C29.4046 3.26883 28.405 3.83152 27.5227 4.55737C26.6109 5.3076 25.8018 6.1797 25.1173 7.15024C24.765 7.64389 24.442 8.15875 24.1501 8.69202C24.0018 8.96043 23.8608 9.23361 23.7272 9.51157C23.6603 9.65226 23.5935 9.79501 23.5267 9.9398C23.4626 10.0894 23.4054 10.2215 23.3383 10.4018L24.6683 10.4151C24.5851 10.1672 24.5119 9.98589 24.4277 9.77998C24.3436 9.57407 24.2584 9.38762 24.1671 9.19707C23.9877 8.81393 23.7933 8.44411 23.5848 8.08453C23.1745 7.3701 22.7079 6.69103 22.1897 6.05408C21.189 4.80522 19.9733 3.75392 18.6026 2.95206C17.9384 2.56422 17.2385 2.24408 16.5129 1.99626C15.8019 1.74789 15.0702 1.56616 14.327 1.4533C13.9592 1.38467 13.5893 1.36213 13.2195 1.32218C12.8497 1.30374 12.4809 1.28325 12.109 1.28325C11.3588 1.28125 10.6099 1.34984 9.87197 1.48814C8.33845 1.77027 6.88391 2.39196 5.61038 3.3096C4.26555 4.29044 3.14103 5.55336 2.31195 7.01399C0.609094 10.11 -0.0379048 13.6971 0.472824 17.2103C0.585859 18.0754 0.75867 18.9312 0.989979 19.7714C1.10323 20.1904 1.23354 20.5981 1.37385 21.0079C1.52331 21.427 1.69529 21.8374 1.88901 22.2372C2.63776 23.7094 3.56588 25.0787 4.65122 26.3125C5.66349 27.4859 6.7453 28.5947 7.89052 29.6327C9.01104 30.6622 10.1576 31.6375 11.3162 32.5841C12.4748 33.5307 13.6445 34.4496 14.8241 35.3501L18.3561 38.0198C19.5277 38.91 20.6923 39.8064 21.8128 40.7489C22.3721 41.2191 22.9244 41.6965 23.4385 42.2047C23.6971 42.4577 23.9396 42.7169 24.1691 42.9883C24.3865 43.2404 24.5774 43.515 24.7384 43.8079L25.0972 44.5004L25.5924 44.02C26.2128 43.4176 26.772 42.8132 27.3423 42.1923C27.9126 41.5715 28.4538 40.9343 28.999 40.2941C30.0744 38.9992 31.1749 37.7329 32.2163 36.4012C33.2576 35.0694 34.2799 33.7171 35.231 32.2962C35.7041 31.5842 36.1632 30.862 36.5891 30.107C37.0255 29.3565 37.4154 28.5787 37.7567 27.7784C36.9646 29.2906 36.0404 30.7266 34.9955 32.0688C33.9873 33.4159 32.9138 34.6965 31.8164 35.9463C30.7189 37.1961 29.6054 38.4265 28.4338 39.5821C27.8534 40.167 27.2641 40.7376 26.6768 41.3062C26.0895 41.8748 25.4861 42.4403 24.8948 42.9453L25.7487 43.1574C25.5579 42.7569 25.3246 42.379 25.0531 42.0305C24.8016 41.6986 24.54 41.3943 24.2734 41.1085C23.7382 40.5287 23.186 39.9949 22.6247 39.4827C21.4982 38.4582 20.3475 37.5106 19.197 36.5651L15.7472 33.753C14.5996 32.8207 13.455 31.8885 12.3335 30.9276C10.0668 29.0441 7.94976 26.9798 6.00227 24.7543C5.0474 23.6571 4.23088 22.4418 3.57179 21.137C3.4206 20.8187 3.28676 20.4921 3.1709 20.1586C3.05363 19.8083 2.93937 19.4477 2.84416 19.084C2.6488 18.3563 2.50379 17.6155 2.41018 16.8671C2.22127 15.3729 2.24693 13.8585 2.48636 12.3718C2.71936 10.9244 3.20336 9.53115 3.91557 8.25766C4.57325 7.06612 5.47371 6.03293 6.556 5.22803C7.6383 4.42313 8.87715 3.86531 10.1887 3.59234C10.8296 3.45565 11.4815 3.37918 12.1361 3.36389C12.4648 3.35672 12.7986 3.36901 13.1283 3.37823C13.457 3.40794 13.7888 3.41819 14.1145 3.47453C14.7698 3.55888 15.416 3.70497 16.0449 3.91095C16.6807 4.11256 17.2955 4.37817 17.88 4.70387C19.0906 5.37733 20.174 6.26612 21.0792 7.32849C21.5523 7.87599 21.9807 8.46223 22.3601 9.08131C22.5525 9.39411 22.7322 9.71544 22.8993 10.0453C22.9835 10.2092 23.0627 10.3762 23.1388 10.5432C23.215 10.7102 23.2882 10.8915 23.3393 11.0226L24.0409 12.9097L24.6723 11.036C24.7054 10.9335 24.7595 10.7952 24.8086 10.6733C24.8577 10.5514 24.9088 10.4192 24.97 10.2932C25.0822 10.0402 25.2015 9.7892 25.3278 9.54334C25.5793 9.0531 25.856 8.57675 26.1566 8.11628C26.7367 7.21348 27.4313 6.39327 28.2223 5.67709C28.9818 4.98891 29.8523 4.44056 30.7951 4.05642C31.7225 3.68678 32.7064 3.48737 33.7016 3.46736C34.2016 3.45493 34.7018 3.48508 35.197 3.55751C35.6947 3.62436 36.185 3.73961 36.6613 3.90172C37.6428 4.23823 38.5472 4.77534 39.3193 5.48039C40.1326 6.23804 40.8109 7.13446 41.3238 8.1296C41.8773 9.17011 42.2826 10.2861 42.5275 11.4437Z" fill="url(#paint3_linear_660_471)"/>
<path d="M36.0701 2.19648C36.5284 2.19648 36.9 1.81671 36.9 1.34824C36.9 0.879769 36.5284 0.5 36.0701 0.5C35.6118 0.5 35.2402 0.879769 35.2402 1.34824C35.2402 1.81671 35.6118 2.19648 36.0701 2.19648Z" fill="#1E1CB0"/>
<defs>
<linearGradient id="paint0_linear_660_471" x1="-150.06" y1="17.4593" x2="-135.604" y2="17.4593" gradientUnits="userSpaceOnUse">
<stop offset="0.001" stop-color="#00C9FF"/>
<stop offset="1" stop-color="#1E1CB0"/>
</linearGradient>
<linearGradient id="paint1_linear_660_471" x1="-150.06" y1="17.4593" x2="-135.604" y2="17.4593" gradientUnits="userSpaceOnUse">
<stop offset="0.001" stop-color="#00C9FF"/>
<stop offset="1" stop-color="#1E1CB0"/>
</linearGradient>
<linearGradient id="paint2_linear_660_471" x1="20.6865" y1="17.1185" x2="48.5463" y2="17.1185" gradientUnits="userSpaceOnUse">
<stop stop-color="#E565C1"/>
<stop offset="1" stop-color="#9F27AE"/>
</linearGradient>
<linearGradient id="paint3_linear_660_471" x1="0.302734" y1="22.8918" x2="42.5275" y2="22.8918" gradientUnits="userSpaceOnUse">
<stop stop-color="#E565C1"/>
<stop offset="1" stop-color="#9F27AE"/>
</linearGradient>
</defs>
</svg>
